<?xml version="1.0" encoding="iso-8859-1"?>
<!-- Generator: Adobe Illustrator 19.0.0, SVG Export Plug-In . SVG Version: 6.00 Build 0)  -->
<svg xmlns="http://www.w3.org/2000/svg" xmlns:xlink="http://www.w3.org/1999/xlink" version="1.1" id="Capa_1" x="0px" y="0px" viewBox="0 0 512 512" style="enable-background:new 0 0 512 512;" xml:space="preserve">
<g>
	<g>
		<path d="M405,0h-60c-8.284,0-15,6.716-15,15s6.716,14.9,15,14.9h21.921C308.734,104.525,210.986,150,105,150    c-8.284,0-15,6.716-15,15s6.716,15,15,15c114.84,0,221.098-49.43,285-130.808V75c0,8.284,6.716,15,15,15s15-6.716,15-15V15    C420,6.716,413.284,0,405,0z"/>
	</g>
</g>
<g>
	<g>
		<path d="M497,482h-17V165c0-8.284-6.716-15-15-15h-90c-8.284,0-15,6.716-15,15v317h-30V225c0-8.284-6.716-15-15-15h-90    c-8.284,0-15,6.716-15,15v257h-30V285c0-8.284-6.716-15-15-15H75c-8.284,0-15,6.716-15,15v197H30V15c0-8.284-6.716-15-15-15    S0,6.716,0,15v482c0,8.284,6.716,15,15,15c3.46,0,474.295,0,482,0c8.284,0,15-6.716,15-15S505.284,482,497,482z M150,482H90V300    h60V482z M300,482h-60V240h60V482z M450,482h-60V180h60V482z"/>
	</g>
</g>
<g>
</g>
<g>
</g>
<g>
</g>
<g>
</g>
<g>
</g>
<g>
</g>
<g>
</g>
<g>
</g>
<g>
</g>
<g>
</g>
<g>
</g>
<g>
</g>
<g>
</g>
<g>
</g>
<g>
</g>
</svg>
