<?xml version="1.0" encoding="iso-8859-1"?>
<!-- Generator: Adobe Illustrator 19.0.0, SVG Export Plug-In . SVG Version: 6.00 Build 0)  -->
<svg xmlns="http://www.w3.org/2000/svg" xmlns:xlink="http://www.w3.org/1999/xlink" version="1.1" id="Capa_1" x="0px" y="0px" viewBox="0 0 512 512" style="enable-background:new 0 0 512 512;" xml:space="preserve">
<g>
	<g>
		<path d="M346.997,269.992c-24.812,0-44.999,20.186-44.999,44.999s20.186,44.999,44.999,44.999    c24.812,0,44.999-20.186,44.999-44.999S371.809,269.992,346.997,269.992z M346.997,329.99c-8.271,0-15-6.729-15-15s6.729-15,15-15    c8.271,0,15,6.729,15,15S355.268,329.99,346.997,329.99z"/>
	</g>
</g>
<g>
	<g>
		<path d="M436.994,149.995H75.006c-8.284,0-15,6.716-15,15c0,8.284,6.716,15,15,15h361.989c8.284,0,15-6.716,15-15    C451.994,156.711,445.278,149.995,436.994,149.995z"/>
	</g>
</g>
<g>
	<g>
		<path d="M197.002,209.993H75.006c-8.284,0-15,6.716-15,15s6.716,15,15,15h121.996c8.284,0,15-6.716,15-15    S205.286,209.993,197.002,209.993z"/>
	</g>
</g>
<g>
	<g>
		<path d="M197.002,269.992H75.006c-8.284,0-15,6.716-15,15s6.716,15,15,15h121.996c8.284,0,15-6.716,15-15    S205.286,269.992,197.002,269.992z"/>
	</g>
</g>
<g>
	<g>
		<path d="M197.002,329.99H75.006c-8.284,0-15,6.716-15,15c0,8.284,6.716,15,15,15h121.996c8.284,0,15-6.716,15-15    C212.001,336.706,205.286,329.99,197.002,329.99z"/>
	</g>
</g>
<g>
	<g>
		<path d="M466.993,0H45.007C20.194,0,0.008,20.186,0.008,44.999v329.99c0,24.812,20.186,44.999,44.999,44.999h226.993v76.998    c0,11.125,11.735,18.4,21.707,13.417l53.29-26.645l53.29,26.645c9.904,4.952,21.707-2.206,21.707-13.417v-76.998h44.999    c24.812,0,44.999-20.186,44.999-44.999V44.999C511.992,20.186,491.806,0,466.993,0z M391.996,472.715l-38.291-19.146    c-4.223-2.111-9.193-2.111-13.416,0l-38.291,19.145v-70.347c2.978,0.169,5.979,0.059,8.961-0.374    c17.907,23.988,54.171,23.985,72.076,0c2.982,0.433,5.983,0.542,8.961,0.374V472.715z M411.529,329.295    c-8.879,2.811-13.071,12.958-8.786,21.211c3.025,5.826,1.933,12.865-2.717,17.513c-4.649,4.651-11.689,5.742-17.514,2.717    c-8.266-4.29-18.404-0.082-21.211,8.786c-4.405,13.917-24.205,13.921-28.611,0c-2.822-8.914-12.993-13.053-21.211-8.786    c-12.955,6.726-26.959-7.273-20.23-20.23c4.291-8.266,0.08-18.404-8.786-21.211c-13.917-4.405-13.921-24.205,0-28.611    c8.879-2.81,13.071-12.958,8.787-21.211c-6.725-12.952,7.274-26.96,20.23-20.23c8.268,4.291,18.405,0.079,21.211-8.786    c4.405-13.917,24.205-13.921,28.611,0c2.811,8.88,12.958,13.069,21.211,8.786c12.953-6.727,26.959,7.273,20.23,20.23    c-4.291,8.266-0.08,18.404,8.786,21.211c6.259,1.981,10.464,7.73,10.464,14.306C421.993,321.565,417.788,327.314,411.529,329.295z     M466.993,389.988h-44.999v-1.553c9.731-10.208,13.95-24.006,12.006-37.406c11.134-8.312,17.993-21.502,17.993-36.039    s-6.86-27.727-17.993-36.038c4.299-29.621-21.344-55.268-50.965-50.965c-17.908-23.988-54.171-23.985-72.077,0    c-29.635-4.291-55.262,21.347-50.965,50.965c-23.988,17.908-23.985,54.171,0,72.077c-1.945,13.402,2.275,27.198,12.006,37.406    v1.553H45.005c-8.271,0-15-6.729-15-15V44.999c0-8.271,6.729-15,15-15h421.987c8.271,0,15,6.729,15,15v329.99h0.001    C481.993,383.259,475.264,389.988,466.993,389.988z"/>
	</g>
</g>
<g>
	<g>
		<path d="M357.606,94.39l-29.999-29.999c-5.857-5.858-15.354-5.858-21.212,0l-19.393,19.392l-19.393-19.392    c-5.857-5.858-15.355-5.858-21.212,0l-19.393,19.392l-19.393-19.392c-5.857-5.858-15.355-5.858-21.212,0L156.397,94.39    c-5.858,5.858-5.858,15.354,0,21.212c5.857,5.859,15.354,5.859,21.211,0l19.393-19.392l19.393,19.392    c5.857,5.858,15.354,5.858,21.212,0l19.393-19.392l19.393,19.392c5.857,5.858,15.354,5.858,21.212,0L317,96.21l19.393,19.392    c5.857,5.858,15.355,5.858,21.212,0C363.464,109.745,363.464,100.248,357.606,94.39z"/>
	</g>
</g>
<g>
</g>
<g>
</g>
<g>
</g>
<g>
</g>
<g>
</g>
<g>
</g>
<g>
</g>
<g>
</g>
<g>
</g>
<g>
</g>
<g>
</g>
<g>
</g>
<g>
</g>
<g>
</g>
<g>
</g>
</svg>
