<?xml version="1.0" encoding="iso-8859-1"?>
<!-- Generator: Adobe Illustrator 19.0.0, SVG Export Plug-In . SVG Version: 6.00 Build 0)  -->
<svg xmlns="http://www.w3.org/2000/svg" xmlns:xlink="http://www.w3.org/1999/xlink" version="1.1" id="Capa_1" x="0px" y="0px" viewBox="0 0 512 512" style="enable-background:new 0 0 512 512;" xml:space="preserve">
<g>
	<g>
		<path d="M406,60h-47.58c-6.192-17.459-22.865-30-42.42-30h-17.57C292.239,12.539,275.556,0,256,0    c-19.556,0-36.239,12.539-42.43,30H196c-19.555,0-36.228,12.541-42.42,30H106c-24.813,0-45,20.187-45,45v362    c0,24.813,20.187,45,45,45h300c24.813,0,45-20.187,45-45V105C451,80.187,430.813,60,406,60z M196,60h30c8.284,0,15-6.716,15-15    c0-8.271,6.729-15,15-15s15,6.729,15,15c0,8.284,6.716,15,15,15h30c8.271,0,15,6.729,15,15s-6.729,15-15,15H196    c-8.271,0-15-6.729-15-15S187.729,60,196,60z M421,467c0,8.271-6.729,15-15,15H106c-8.271,0-15-6.729-15-15V105    c0-8.271,6.729-15,15-15h47.58c6.192,17.459,22.865,30,42.42,30h120c19.555,0,36.228-12.541,42.42-30H406c8.271,0,15,6.729,15,15    V467z"/>
	</g>
</g>
<g>
	<g>
		<path d="M376,150H136c-8.284,0-15,6.716-15,15v272c0,8.284,6.716,15,15,15h240c8.284,0,15-6.716,15-15V165    C391,156.716,384.284,150,376,150z M361,422H151V180h210V422z"/>
	</g>
</g>
<g>
	<g>
		<circle cx="196" cy="257" r="15"/>
	</g>
</g>
<g>
	<g>
		<circle cx="196" cy="317" r="15"/>
	</g>
</g>
<g>
	<g>
		<circle cx="196" cy="377" r="15"/>
	</g>
</g>
<g>
	<g>
		<path d="M316,302h-60c-8.284,0-15,6.716-15,15s6.716,15,15,15h60c8.284,0,15-6.716,15-15S324.284,302,316,302z"/>
	</g>
</g>
<g>
	<g>
		<path d="M316,362h-60c-8.284,0-15,6.716-15,15s6.716,15,15,15h60c8.284,0,15-6.716,15-15S324.284,362,316,362z"/>
	</g>
</g>
<g>
	<g>
		<path d="M326.606,216.394c-5.857-5.858-15.355-5.858-21.213,0L286,235.787l-7.728-7.728c-5.858-5.858-15.355-5.858-21.213,0    c-5.858,5.858-5.858,15.355,0,21.213l18.335,18.334C278.207,270.42,282.021,272,286,272c3.978,0,7.793-1.58,10.606-4.393l30-30    C332.464,231.749,332.464,222.252,326.606,216.394z"/>
	</g>
</g>
<g>
</g>
<g>
</g>
<g>
</g>
<g>
</g>
<g>
</g>
<g>
</g>
<g>
</g>
<g>
</g>
<g>
</g>
<g>
</g>
<g>
</g>
<g>
</g>
<g>
</g>
<g>
</g>
<g>
</g>
</svg>
