<?xml version="1.0" encoding="iso-8859-1"?>
<!-- Generator: Adobe Illustrator 19.0.0, SVG Export Plug-In . SVG Version: 6.00 Build 0)  -->
<svg xmlns="http://www.w3.org/2000/svg" xmlns:xlink="http://www.w3.org/1999/xlink" version="1.1" id="Layer_1" x="0px" y="0px" viewBox="0 0 512.001 512.001" style="enable-background:new 0 0 512.001 512.001;" xml:space="preserve">
<g>
	<g>
		<circle cx="501.978" cy="109.276" r="10.023"/>
	</g>
</g>
<g>
	<g>
		<path d="M305.548,410.679h-38.796c-5.535,0-10.023,4.488-10.023,10.023s4.487,10.023,10.023,10.023h38.796    c5.973,0,10.833,4.861,10.833,10.834c0,5.973-4.86,10.833-10.833,10.833H201.115c-15.691,0-30.446-6.919-40.482-18.981    l-24.973-30.019c-13.401-16.108-32.901-25.543-53.767-26.148v-59.012h36.788c18.147,0,35.331,6.941,48.387,19.544l53.902,52.03    c3.801,3.668,3.978,9.811,0.395,13.694c-3.651,3.956-9.851,4.214-13.819,0.577l-42.319-38.793    c-4.081-3.74-10.42-3.465-14.161,0.615c-3.74,4.079-3.465,10.419,0.615,14.16l42.32,38.794c5.712,5.236,12.94,7.821,20.15,7.821    c8.049,0,16.076-3.223,21.943-9.579c10.915-11.825,10.375-30.537-1.203-41.713l-53.901-52.029    c-16.812-16.229-38.941-25.167-62.308-25.167H80.087c-3.681-9.095-12.601-15.532-23.001-15.532H10.023    C4.487,282.655,0,287.143,0,292.677v73.11c0,5.534,4.487,10.023,10.023,10.023c5.535,0,10.023-4.488,10.023-10.023V302.7h37.041    c2.626,0,4.762,2.136,4.762,4.762v80.135c0,2.626-2.136,4.762-4.762,4.762H46.703c-5.535,0-10.023,4.488-10.023,10.023    s4.487,10.023,10.023,10.023h10.383c10.262,0,19.089-6.264,22.857-15.169c15.625,0.052,30.308,6.96,40.306,18.977l24.973,30.019    c13.856,16.654,34.228,26.206,55.892,26.206h104.434c17.026,0,30.878-13.852,30.878-30.879    C336.426,424.53,322.574,410.679,305.548,410.679z"/>
	</g>
</g>
<g>
	<g>
		<path d="M368.38,341.251c-4.114-3.704-10.452-3.37-14.155,0.745c-0.019,0.021-0.104,0.116-0.123,0.138    c-3.66,4.138-3.268,10.441,0.859,14.113c1.905,1.695,4.281,2.528,6.649,2.528c2.761-0.001,5.512-1.133,7.496-3.35l-7.431-6.725    l7.45,6.704C372.828,351.29,372.495,344.953,368.38,341.251z"/>
	</g>
</g>
<g>
	<g>
		<path d="M347.438,363.053c-3.256-4.476-9.563-5.439-14.042-2.181c-4.476,3.255-5.466,9.523-2.211,14    c1.961,2.696,5.016,4.128,8.114,4.128c2.044,0,4.107-0.623,5.887-1.918l0.081-0.059    C349.744,373.768,350.694,367.529,347.438,363.053z"/>
	</g>
</g>
<g>
	<g>
		<path d="M322.422,379.815c-2.265-5.019-8.159-7.261-13.189-5.044c-5.017,2.162-7.388,7.959-5.296,13.026    c1.595,3.867,5.33,6.203,9.268,6.203c1.274,0,2.569-0.245,3.82-0.761c0.101-0.042,0.293-0.125,0.393-0.171    C322.461,390.791,324.697,384.861,322.422,379.815z"/>
	</g>
</g>
<g>
	<g>
		<path d="M294.401,390.984c-1.125-5.396-6.401-8.857-11.794-7.779c-5.378,1.033-8.94,6.203-7.972,11.609    c0.869,4.852,5.092,8.258,9.854,8.258c0.586,0,1.182-0.052,1.779-0.158c0.126-0.023,0.254-0.048,0.381-0.074    C292.065,401.707,295.53,396.401,294.401,390.984z"/>
	</g>
</g>
<g>
	<g>
		<path d="M406.807,235.042l-9.842,1.891l9.839-1.909c-1.054-5.434-6.314-8.987-11.748-7.93c-5.434,1.054-8.984,6.314-7.93,11.748    l0.048,0.24c0.988,4.732,5.167,8.003,9.818,8.003c0.676,0,1.361-0.069,2.048-0.213C404.457,245.74,407.938,240.46,406.807,235.042    z"/>
	</g>
</g>
<g>
	<g>
		<path d="M397.65,257.012c-5.517-0.484-10.377,3.59-10.864,9.103c-0.004,0.049-0.017,0.196-0.02,0.246    c-0.406,5.52,3.737,10.356,9.258,10.762c0.252,0.019,0.502,0.027,0.751,0.027c5.199,0,9.59-3.988,9.977-9.256l-9.982-0.898    l9.983,0.881C407.24,262.364,403.164,257.499,397.65,257.012z"/>
	</g>
</g>
<g>
	<g>
		<path d="M384.115,315.541c-4.811-2.732-10.95-1.005-13.685,3.803c-2.737,4.812-1.056,10.93,3.754,13.668    c1.565,0.891,3.267,1.314,4.947,1.314c3.486,0,6.873-1.821,8.721-5.068c0.003-0.005,0.055-0.097,0.058-0.103    C390.638,324.342,388.925,318.273,384.115,315.541z"/>
	</g>
</g>
<g>
	<g>
		<path d="M393.987,286.969c-5.297-1.609-10.896,1.394-12.5,6.692c-1.651,5.283,1.294,10.905,6.577,12.555    c0.995,0.312,2.003,0.459,2.993,0.459c4.268,0,8.223-2.747,9.563-7.037l0.055-0.178    C402.279,294.163,399.285,288.574,393.987,286.969z"/>
	</g>
</g>
<g>
	<g>
		<path d="M129.65,285.483c-1.225-5.363-6.548-8.734-11.93-7.555c-5.405,1.193-8.821,6.541-7.628,11.947l0.07,0.301    c1.11,4.583,5.208,7.652,9.724,7.652c0.781,0,1.576-0.092,2.369-0.283C127.62,296.247,130.921,290.847,129.65,285.483z"/>
	</g>
</g>
<g>
	<g>
		<path d="M131.873,189.986c-5.042-2.277-10.982-0.036-13.259,5.009l-0.118,0.27c-2.18,5.085,0.178,10.963,5.263,13.146    c1.287,0.552,2.624,0.814,3.942,0.814c3.878,0,7.572-2.267,9.212-6.046C139.141,198.148,136.896,192.255,131.873,189.986z"/>
	</g>
</g>
<g>
	<g>
		<path d="M120.819,218.047c-5.415-1.129-10.729,2.341-11.861,7.76l-0.048,0.24c-1.054,5.434,2.492,10.715,7.926,11.769    c0.647,0.125,1.293,0.186,1.928,0.186c4.699,0,8.887-3.308,9.815-8.095C129.711,224.489,126.237,219.178,120.819,218.047z"/>
	</g>
</g>
<g>
	<g>
		<path d="M148.506,164.848c-4.486-3.223-10.747-2.192-13.983,2.285l8.088,5.918l-8.105-5.895    c-3.256,4.477-2.266,10.745,2.21,14.001c1.78,1.295,3.843,1.917,5.887,1.917c3.098,0,6.153-1.431,8.114-4.128l0.108-0.15    C154.036,174.301,152.992,168.072,148.506,164.848z"/>
	</g>
</g>
<g>
	<g>
		<path d="M170.254,143.884c-3.703-4.114-10.041-4.448-14.155-0.746c-0.003,0.002-0.08,0.072-0.083,0.074    c-4.109,3.706-4.4,10.006-0.696,14.118c1.97,2.188,4.697,3.296,7.437,3.296c2.408,0,4.827-0.856,6.751-2.588    C173.622,154.335,173.956,147.998,170.254,143.884z"/>
	</g>
</g>
<g>
	<g>
		<path d="M195.963,128.091c-2.702-4.831-8.809-6.557-13.64-3.855c-0.038,0.021-0.161,0.091-0.198,0.113    c-4.796,2.763-6.456,8.899-3.692,13.695c1.856,3.221,5.225,5.024,8.691,5.024c1.694,0,3.411-0.431,4.985-1.338    C196.939,139.029,198.665,132.922,195.963,128.091z"/>
	</g>
</g>
<g>
	<g>
		<path d="M224.388,117.896c-1.702-5.267-7.325-8.168-12.591-6.464l2.931,9.585l-2.948-9.58c-5.289,1.628-8.259,7.236-6.631,12.527    c1.326,4.309,5.291,7.078,9.576,7.078c0.976,0,1.969-0.143,2.951-0.446c0.044-0.014,0.184-0.057,0.229-0.072    C223.172,128.822,226.09,123.164,224.388,117.896z"/>
	</g>
</g>
<g>
	<g>
		<path d="M254.344,114.302c-0.486-5.513-5.348-9.585-10.864-9.103l-0.1,0.009c-5.513,0.486-9.539,5.346-9.053,10.86    c0.46,5.214,4.879,9.138,10.021,9.138c0.296,0,0.593-0.013,0.894-0.039C250.754,124.681,254.83,119.816,254.344,114.302z"/>
	</g>
</g>
<g>
	<g>
		<path d="M126.148,257.548c-0.162-5.532-4.756-9.914-10.314-9.756c-5.533,0.163-9.887,4.748-9.724,10.28l10.022-0.13l-10.022,0.147    c0.081,5.484,4.552,9.875,10.018,9.875c0.05,0,0.1,0,0.15-0.001c5.534-0.081,9.955-4.634,9.874-10.169    C126.152,257.746,126.149,257.598,126.148,257.548z"/>
	</g>
</g>
<g>
	<g>
		<path d="M266.314,245.231h-7.788h-5.052h-7.789c-8.401,0-15.236-6.835-15.236-15.237v-11.998c0-8.402,6.835-15.237,15.236-15.237    h22.855c7.174,0,13.01,5.836,13.01,13.01c0,5.535,4.487,10.023,10.023,10.023s10.023-4.487,10.023-10.023    c0-18.227-14.828-33.055-33.055-33.055h-2.519v-14.922c0-5.535-4.487-10.023-10.023-10.023c-5.535,0-10.023,4.487-10.023,10.023    v14.922h-0.292c-19.453,0.001-35.28,15.829-35.28,35.283v11.998c0,19.455,15.828,35.282,35.281,35.282h12.841    c0.007,0,0.013-0.001,0.019-0.001h7.768c8.402,0,15.237,6.835,15.237,15.237v11.998c0,8.402-6.835,15.237-15.237,15.237h-22.855    c-7.174,0-13.009-5.836-13.009-13.01c0-5.534-4.487-10.023-10.023-10.023c-5.535,0-10.023,4.488-10.023,10.023    c0,18.228,14.828,33.055,33.054,33.055h2.519v14.921c0,5.534,4.487,10.023,10.023,10.023c5.535,0,10.023-4.488,10.023-10.023    v-14.921h0.292c19.455,0,35.282-15.828,35.282-35.282v-11.998C301.596,261.058,285.768,245.231,266.314,245.231z"/>
	</g>
</g>
<g>
	<g>
		<path d="M501.977,131.944c-5.535,0-10.023,4.487-10.023,10.023v66.994h-37.041c-2.626,0-4.762-2.136-4.762-4.762v-80.135    c0-2.626,2.136-4.762,4.762-4.762h9.651c5.535,0,10.023-4.487,10.023-10.023c0-5.535-4.487-10.023-10.023-10.023h-9.651    c-10.39,0-19.303,6.423-22.991,15.506c-15.575-0.091-30.203-6.99-40.172-18.973l-24.974-30.02    c-13.855-16.654-34.226-26.206-55.892-26.206H206.451c-17.026,0-30.878,13.852-30.878,30.878    c0,17.026,13.852,30.878,30.878,30.878h42.704c5.535,0,10.023-4.487,10.023-10.023c0-5.535-4.487-10.023-10.023-10.023h-42.704    c-5.973,0-10.833-4.86-10.833-10.833c0-5.973,4.86-10.833,10.833-10.833h104.434c15.691,0,30.446,6.919,40.482,18.981    l24.974,30.019c13.4,16.108,32.901,25.543,53.766,26.148v59.012h-36.788c-18.147,0-35.331-6.941-48.387-19.544l-53.902-52.03    c-3.801-3.669-3.978-9.812-0.395-13.695c3.651-3.956,9.851-4.214,13.819-0.577l42.319,38.793c4.08,3.74,10.42,3.466,14.161-0.615    c3.74-4.08,3.465-10.42-0.615-14.161L318,93.147c-12.089-11.081-30.972-10.293-42.094,1.757    c-10.915,11.824-10.375,30.537,1.203,41.713l53.901,52.03c16.812,16.228,38.941,25.167,62.308,25.167h38.728    c3.763,8.917,12.595,15.191,22.866,15.191h47.064c5.535,0,10.023-4.487,10.023-10.023v-77.016    C512,136.431,507.513,131.944,501.977,131.944z"/>
	</g>
</g>
<g>
	<g>
		<circle cx="10.023" cy="402.385" r="10.023"/>
	</g>
</g>
<g>
</g>
<g>
</g>
<g>
</g>
<g>
</g>
<g>
</g>
<g>
</g>
<g>
</g>
<g>
</g>
<g>
</g>
<g>
</g>
<g>
</g>
<g>
</g>
<g>
</g>
<g>
</g>
<g>
</g>
</svg>
