<?xml version="1.0" encoding="iso-8859-1"?>
<!-- Generator: Adobe Illustrator 19.0.0, SVG Export Plug-In . SVG Version: 6.00 Build 0)  -->
<svg xmlns="http://www.w3.org/2000/svg" xmlns:xlink="http://www.w3.org/1999/xlink" version="1.1" id="Layer_1" x="0px" y="0px" viewBox="0 0 512 512" style="enable-background:new 0 0 512 512;" xml:space="preserve">
<g>
	<g>
		<path d="M366.997,300.991h-10.976c7.868-9.515,12.602-21.711,12.602-34.993v-26.142c0-5.522-4.477-10-10-10h-57.628    c-13.282,0-25.479,4.734-34.993,12.602v-41.66c50.819-5.036,90.646-48.029,90.646-100.151C356.647,45.149,311.498,0,256.001,0    S155.354,45.149,155.354,100.646c0,52.123,39.827,95.115,90.647,100.151v23.78c-9.515-7.868-21.711-12.602-34.993-12.602h-34.439    c-5.523,0-10,4.478-10,10v10.067c0,30.323,24.67,54.993,54.993,54.993h24.439v13.955H145.005    c-15.525,0-28.156,12.631-28.156,28.156v1.005c0,13.775,9.946,25.263,23.031,27.68v52.781c0,32.411,24.105,59.284,55.325,63.669    c-3.805,6.189-6.005,13.465-6.005,21.248V502c0,5.522,4.477,10,10,10h113.599c5.523,0,10-4.478,10-10v-6.47    c0-7.782-2.2-15.059-6.005-21.248c31.221-4.386,55.325-31.259,55.325-63.669v-52.781c13.086-2.417,23.032-13.906,23.032-27.68    v-1.005C395.152,313.622,382.522,300.991,366.997,300.991z M300.994,249.857h47.628v16.142c0,19.295-15.698,34.993-34.993,34.993    h-47.628V284.85C266.001,265.555,281.699,249.857,300.994,249.857z M175.354,100.646c0-44.468,36.178-80.646,80.647-80.646    s80.646,36.178,80.646,80.646s-36.177,80.648-80.646,80.648S175.354,145.115,175.354,100.646z M221.562,267.036    c-19.295,0-34.993-15.698-34.993-34.993v-0.067h24.439c19.295,0,34.993,15.698,34.993,34.993v0.067H221.562z M209.503,492    c1.577-9.138,9.169-16.241,18.536-17.076h55.924c9.367,0.835,16.959,7.938,18.536,17.076H209.503z M375.152,330.152    c0,4.497-3.659,8.156-8.156,8.156H238.522c-5.523,0-10,4.478-10,10c0,5.522,4.477,10,10,10h113.599v52.305    c0,24.433-19.877,44.311-44.311,44.311H204.191c-24.433,0-44.311-19.878-44.311-44.311v-62.305c0-5.522-4.477-10-10-10h-4.875    c-4.497,0-8.156-3.659-8.156-8.156v-1.005c0-4.497,3.659-8.156,8.156-8.156h221.991c4.497,0,8.156,3.659,8.156,8.156V330.152z"/>
	</g>
</g>
<g>
	<g>
		<path d="M262.608,90.435h-4.989h-3.236h-4.989c-3.408,0-6.181-2.772-6.181-6.18V76.57c0-3.407,2.772-6.18,6.181-6.18h14.64    c2.621,0,4.754,2.133,4.754,4.754c0,5.522,4.477,10,10,10s10-4.478,10-10c0-12.987-10.055-23.662-22.787-24.669v-6.064    c0-5.522-4.477-10-10-10c-5.523,0-10,4.478-10,10v6.206c-12.838,1.67-22.788,12.667-22.788,25.953v7.687    c0,14.436,11.745,26.18,26.181,26.18h4.989h3.236h4.989c3.408,0,6.18,2.772,6.18,6.181v7.686c0,3.408-2.772,6.181-6.18,6.181    h-14.641c-2.621,0-4.754-2.133-4.754-4.754c0-5.522-4.477-10-10-10s-10,4.478-10,10c0,12.987,10.055,23.662,22.788,24.669v6.064    c0,5.522,4.477,10,10,10c5.523,0,10-4.48,10-10.002v-6.206c12.838-1.67,22.787-12.667,22.787-25.954v-7.686    C288.788,102.179,277.044,90.435,262.608,90.435z"/>
	</g>
</g>
<g>
	<g>
		<circle cx="196.171" cy="348.31" r="10"/>
	</g>
</g>
<g>
</g>
<g>
</g>
<g>
</g>
<g>
</g>
<g>
</g>
<g>
</g>
<g>
</g>
<g>
</g>
<g>
</g>
<g>
</g>
<g>
</g>
<g>
</g>
<g>
</g>
<g>
</g>
<g>
</g>
</svg>
