<?xml version="1.0" encoding="iso-8859-1"?>
<!-- Generator: Adobe Illustrator 19.0.0, SVG Export Plug-In . SVG Version: 6.00 Build 0)  -->
<svg xmlns="http://www.w3.org/2000/svg" xmlns:xlink="http://www.w3.org/1999/xlink" version="1.1" id="Capa_1" x="0px" y="0px" viewBox="0 0 512 512" style="enable-background:new 0 0 512 512;" xml:space="preserve">
<g>
	<g>
		<path d="M401.606,394.394l-72.273-72.274C339.823,307.403,346,289.409,346,270c0-49.626-40.374-90-90-90    c-49.626,0-90,40.374-90,90c0,49.626,40.374,90,90,90c19.41,0,37.403-6.177,52.12-16.667l72.273,72.273    c2.929,2.93,6.768,4.394,10.607,4.394s7.678-1.464,10.606-4.393C407.464,409.749,407.464,400.252,401.606,394.394z M256,330    c-33.084,0-60-26.916-60-60s26.916-60,60-60s60,26.916,60,60S289.084,330,256,330z"/>
	</g>
</g>
<g>
	<g>
		<path d="M452.819,115.607L410.394,73.18c-1.39-1.39-2.862-2.668-4.394-3.85V15c0-8.284-6.716-15-15-15H61c-8.284,0-15,6.716-15,15    v420c0,8.284,6.716,15,15,15h45v47c0,8.284,6.716,15,15,15h330c8.284,0,15-6.716,15-15V147.427    C466,135.407,461.319,124.107,452.819,115.607z M106,75v345H76V30h300v30H121C112.716,60,106,66.716,106,75z M436,482H136V90h210    v75c0,8.284,6.716,15,15,15h75V482z M436,150h-60V90h2.573c4.007,0,7.774,1.56,10.607,4.393l42.426,42.427    c2.833,2.833,4.394,6.601,4.394,10.607V150z"/>
	</g>
</g>
<g>
</g>
<g>
</g>
<g>
</g>
<g>
</g>
<g>
</g>
<g>
</g>
<g>
</g>
<g>
</g>
<g>
</g>
<g>
</g>
<g>
</g>
<g>
</g>
<g>
</g>
<g>
</g>
<g>
</g>
</svg>
