<?xml version="1.0" encoding="iso-8859-1"?>
<!-- Generator: Adobe Illustrator 19.0.0, SVG Export Plug-In . SVG Version: 6.00 Build 0)  -->
<svg xmlns="http://www.w3.org/2000/svg" xmlns:xlink="http://www.w3.org/1999/xlink" version="1.1" id="Layer_1" x="0px" y="0px" viewBox="0 0 511.999 511.999" style="enable-background:new 0 0 511.999 511.999;" xml:space="preserve">
<g>
	<g>
		<circle cx="255.999" cy="501.71" r="10.289"/>
	</g>
</g>
<g>
	<g>
		<path d="M369.247,46.444C338.272,15.898,297.197-0.58,253.703,0.016c-41.874,0.583-81.412,17.296-111.333,47.061    c-29.922,29.767-46.839,69.217-47.633,111.085c-0.884,46.591,18.394,91.27,52.891,122.582    c15.136,13.738,23.817,33.428,23.817,54.021v22.319c0,13.379,6.915,25.167,17.353,31.999v54.677    c0,19.585,15.933,35.518,35.518,35.518h63.365c19.585,0,35.518-15.933,35.518-35.518v-54.677    c10.438-6.832,17.353-18.62,17.353-31.999v-22.319c0-20.537,8.771-40.308,24.063-54.245    c33.476-30.509,52.675-73.966,52.675-119.229C417.29,117.784,400.228,76.997,369.247,46.444z M303.199,443.76    c0,8.557-6.961,15.518-15.518,15.518h-63.365c-8.557,0-15.518-6.961-15.518-15.518v-48.452h0.871h92.66h0.87V443.76z     M351.143,265.737c-19.441,17.718-30.591,42.877-30.591,69.027v22.319c0,10.049-8.175,18.224-18.224,18.224h-36.33V336.63    c0-5.523-4.477-10-10-10s-10,4.477-10,10v38.677h-36.33c-10.048,0-18.224-8.175-18.224-18.224v-22.319    c0-26.222-11.071-51.31-30.375-68.831c-30.222-27.431-47.111-66.574-46.336-107.392c1.43-75.335,63.896-137.479,139.248-138.528    c0.68-0.009,1.353-0.014,2.031-0.014c37.382,0,72.542,14.404,99.192,40.685c27.14,26.765,42.086,62.494,42.086,100.606    C397.29,200.94,380.47,239.009,351.143,265.737z"/>
	</g>
</g>
<g>
	<g>
		<path d="M268.801,171.847h-9.666h-6.271h-9.666c-11.771,0-21.348-9.577-21.348-21.348v-14.891    c-0.001-11.772,9.576-21.349,21.348-21.349h28.365c10.248,0,18.585,8.337,18.585,18.585c0,5.523,4.477,10,10,10s10-4.477,10-10    c0-21.276-17.309-38.585-38.585-38.585h-5.564V73.303c0-5.523-4.477-10-10-10s-10,4.477-10,10V94.26h-2.801    c-22.799,0-41.348,18.549-41.348,41.348v14.891c0,22.799,18.549,41.348,41.348,41.348h9.666h6.271h9.666    c11.771,0,21.348,9.577,21.348,21.348v14.89c0,11.771-9.577,21.348-21.348,21.348h-28.365c-10.248,0-18.585-8.337-18.585-18.584    c0-5.523-4.477-10-10-10s-10,4.477-10,10c0,21.275,17.309,38.584,38.585,38.584H246v20.957c0,5.523,4.477,10,10,10s10-4.477,10-10    v-20.957h2.801c22.799,0,41.348-18.549,41.348-41.348v-14.89C310.149,190.396,291.6,171.847,268.801,171.847z"/>
	</g>
</g>
<g>
</g>
<g>
</g>
<g>
</g>
<g>
</g>
<g>
</g>
<g>
</g>
<g>
</g>
<g>
</g>
<g>
</g>
<g>
</g>
<g>
</g>
<g>
</g>
<g>
</g>
<g>
</g>
<g>
</g>
</svg>
