<?xml version="1.0" encoding="iso-8859-1"?>
<!-- Generator: Adobe Illustrator 19.0.0, SVG Export Plug-In . SVG Version: 6.00 Build 0)  -->
<svg xmlns="http://www.w3.org/2000/svg" xmlns:xlink="http://www.w3.org/1999/xlink" version="1.1" baseProfile="full" viewBox="0 0 89.00 46.01" enable-background="new 0 0 89.00 46.01" xml:space="preserve">
	<path d="M 9.44287,0C 13.6978,0 16.8228,0.71875 18.8179,2.15625C 20.8125,3.59375 21.8103,5.76758 21.8103,8.67773C 21.8103,10.6626 21.2012,12.3154 19.9839,13.6353C 18.7664,14.9551 16.9878,15.8027 14.6475,16.1777L 14.6475,16.3203C 17.3975,16.7202 19.4199,17.5737 20.7153,18.8813C 22.0103,20.189 22.6577,22.0103 22.6577,24.3452C 22.6577,27.4653 21.6052,29.8677 19.5,31.5527C 17.3953,33.2378 14.4126,34.0801 10.5527,34.0801L 0,34.0801L 0,0L 9.44287,0 Z M 10.5059,32.1602C 16.8862,32.1602 20.0759,29.5654 20.0759,24.375C 20.0759,20.4175 17.7205,18.1157 13.0093,17.4692L 13.0093,15.166C 14.7358,14.9189 16.0815,14.436 17.0459,13.7178C 18.5161,12.6226 19.251,10.9102 19.251,8.58008C 19.251,6.25 18.4224,4.55762 16.7646,3.50293C 15.1072,2.44775 12.6335,1.92041 9.34351,1.92041L 3.52905,1.92041L 4.54175,2.93311L 8.19702,6.58838C 8.98511,7.37598 9.74463,8.04395 10.4756,8.59229L 8.84668,10.2207C 8.28613,9.48145 7.61694,8.72314 6.8396,7.9458L 3.22803,4.33447L 2.39111,3.49707L 2.39111,12.7471L 2.37939,12.7471L 2.37939,20.2471L 2.39111,20.2471L 2.39111,32.1602L 10.5059,32.1602 Z M 46.5896,9.05176L 46.5896,10.6489L 41.332,10.9717C 42.7373,12.7114 43.4399,14.624 43.4399,16.709C 43.4399,19.144 42.6287,21.1167 41.0059,22.6265C 39.3835,24.1367 37.207,24.8916 34.4773,24.8916C 33.332,24.8916 32.5249,24.8442 32.0547,24.749C 31.1396,25.2539 30.4421,25.8477 29.9624,26.5303C 29.4822,27.2129 29.2422,27.9341 29.2422,28.6943C 29.2422,29.5391 29.5486,30.1567 30.1609,30.5469C 30.7734,30.9365 31.8022,31.1318 33.2471,31.1318L 37.6724,31.1318C 40.4175,31.1318 42.5195,31.6841 43.98,32.7891C 45.4399,33.894 46.1697,35.5293 46.1697,37.6943C 46.1697,40.3491 45.0859,42.3989 42.9185,43.8442C 40.751,45.2891 37.6621,46.0117 33.6521,46.0117C 30.4673,46.0117 28.001,45.3916 26.2537,44.1519C 24.5059,42.9116 23.6323,41.1865 23.6323,38.9766C 23.6323,37.2168 24.1724,35.7568 25.2524,34.5967C 26.332,33.4365 27.8022,32.644 29.6621,32.2192C 28.8972,31.8892 28.2837,31.4229 27.821,30.8203C 27.3584,30.2178 27.1274,29.5269 27.1274,28.7466C 27.1274,27.0415 28.2146,25.5391 30.3896,24.2393C 28.9048,23.6343 27.7485,22.6855 26.9209,21.3931C 26.0935,20.1006 25.6797,18.6167 25.6797,16.9419C 25.6797,14.4165 26.4834,12.3906 28.0908,10.8628C 29.6987,9.33545 31.8699,8.57178 34.605,8.57178C 36.2695,8.57178 37.5596,8.73145 38.4746,9.05176L 46.5896,9.05176 Z M 26.0923,38.7065C 26.0923,42.2969 28.6748,44.0918 33.8396,44.0918C 40.48,44.0918 43.7998,41.9019 43.7998,37.5215C 43.7998,35.9517 43.2798,34.814 42.2397,34.1094C 41.1997,33.4043 39.5173,33.0518 37.1921,33.0518L 33.0522,33.0518C 28.4121,33.0518 26.0923,34.9365 26.0923,38.7065 Z M 28.0195,16.9268C 28.0195,18.8418 28.6133,20.3281 29.8008,21.3853C 30.9883,22.4429 32.5747,22.9717 34.5596,22.9717C 36.6648,22.9717 38.2798,22.4468 39.4048,21.3965C 40.5298,20.3467 41.0923,18.8267 41.0923,16.8364C 41.0923,14.7217 40.5146,13.1353 39.3599,12.0781C 38.2048,11.0205 36.5874,10.4917 34.5073,10.4917C 32.4922,10.4917 30.9072,11.0581 29.7524,12.1904C 28.5974,13.3228 28.0195,14.9019 28.0195,16.9268 Z M 62.1299,34.9717C 58.4199,34.9717 55.5278,33.833 53.4526,31.5552C 51.3777,29.2778 50.3403,26.0864 50.3403,21.9814C 50.3403,17.9268 51.3413,14.6777 53.3438,12.2354C 55.3464,9.79297 58.0476,8.57178 61.4478,8.57178C 64.4526,8.57178 66.824,9.61035 68.5613,11.688C 70.2988,13.7656 71.1677,16.5864 71.1677,20.1519L 71.1677,22.0117L 52.7778,22.0117C 52.8076,25.5967 53.625,28.333 55.2302,30.2202C 56.835,32.1079 59.1353,33.0518 62.1299,33.0518C 63.585,33.0518 64.865,32.9502 65.9702,32.748C 67.075,32.5454 68.4727,32.1094 70.1626,31.439L 70.1626,33.5015C 68.7227,34.0718 67.3914,34.459 66.1687,34.6641C 64.9463,34.8691 63.6001,34.9717 62.1299,34.9717 Z M 61.4478,10.4917C 58.9878,10.4917 57.0137,11.3154 55.5264,12.9629C 54.0388,14.6104 53.1699,16.9868 52.9199,20.0918L 68.7075,20.0918C 68.7075,17.0815 68.0652,14.729 66.78,13.0342C 65.4951,11.3394 63.7175,10.4917 61.4478,10.4917 Z M 85.0876,33.0518C 86.5828,33.0518 87.8877,32.9268 89.0027,32.6768L 89.0027,34.4468C 87.8628,34.7969 86.5454,34.9717 85.0503,34.9717C 82.7703,34.9717 81.0867,34.3677 79.999,33.1606C 78.9116,31.9531 78.3679,30.0566 78.3679,27.4717L 78.3679,10.9717L 74.5352,10.9717L 74.5352,9.6665L 78.3679,8.6543L 79.5378,2.81152L 80.7378,2.81152L 80.7378,9.05176L 88.3579,9.05176L 88.3579,10.9717L 80.7378,10.9717L 80.7378,27.2544C 80.7378,29.2241 81.0876,30.6831 81.7878,31.6304C 82.4878,32.5781 83.5876,33.0518 85.0876,33.0518 Z "/>
</svg>
