<?xml version="1.0" encoding="utf-8"?>
<!DOCTYPE svg PUBLIC "-//W3C//DTD SVG 1.1//EN" "http://www.w3.org/Graphics/SVG/1.1/DTD/svg11.dtd">
<svg xmlns="http://www.w3.org/2000/svg" xmlns:xlink="http://www.w3.org/1999/xlink" version="1.1" baseProfile="full" viewBox="0 0 22.66 34.08" xml:space="preserve">
	<path d="M 9.44287,0C 13.6978,0 16.8228,0.71875 18.8179,2.15625C 20.8125,3.59375 21.8103,5.76758 21.8103,8.67773C 21.8103,10.6626 21.2012,12.3154 19.9839,13.6353C 18.7664,14.9551 16.9878,15.8027 14.6475,16.1777L 14.6475,16.3203C 17.3975,16.7202 19.4199,17.5737 20.7153,18.8813C 22.0103,20.189 22.6577,22.0103 22.6577,24.3452C 22.6577,27.4653 21.6052,29.8677 19.5,31.5527C 17.3953,33.2378 14.4126,34.0801 10.5527,34.0801L 0,34.0801L 0,0L 9.44287,0 Z M 10.5068,32.1602C 16.8872,32.1602 20.0769,29.5654 20.0769,24.375C 20.0769,20.418 17.7214,18.1157 13.0103,17.4692L 13.0103,15.166C 14.7368,14.9189 16.0825,14.436 17.0469,13.7178C 18.5171,12.6226 19.252,10.9102 19.252,8.58008C 19.252,6.25 18.4233,4.55762 16.7656,3.50293C 15.1082,2.44775 12.6345,1.92041 9.34448,1.92041L 3.53003,1.92041L 4.54272,2.93311L 8.198,6.58838C 8.98608,7.37598 9.74561,8.04395 10.4766,8.59229L 8.84766,10.2207C 8.28711,9.48145 7.61792,8.72314 6.84058,7.9458L 3.229,4.33447L 2.39209,3.49707L 2.39209,12.7471L 2.38037,12.7471L 2.38037,20.2471L 2.39209,20.2471L 2.39209,32.1602L 10.5068,32.1602 Z "/>
</svg>
