<?xml version="1.0" encoding="iso-8859-1"?>
<!-- Generator: Adobe Illustrator 19.0.0, SVG Export Plug-In . SVG Version: 6.00 Build 0)  -->
<svg xmlns="http://www.w3.org/2000/svg" xmlns:xlink="http://www.w3.org/1999/xlink" version="1.1" id="Layer_1" x="0px" y="0px" viewBox="0 0 512.001 512.001" style="enable-background:new 0 0 512.001 512.001;" xml:space="preserve">
<g>
	<g>
		<path d="M456.289,422.381v-22.412c0-20.607-16.766-37.373-37.373-37.373H266v-9.278c0-5.523-4.478-10-10-10    c-5.522,0-10,4.477-10,10v9.278H93.084c-20.607,0-37.373,16.765-37.373,37.373v22.412c-20.22,4.568-35.371,22.666-35.371,44.248    c0,25.017,20.353,45.371,45.371,45.371c25.019,0,45.372-20.354,45.372-45.372c0-21.582-15.151-39.68-35.372-44.248v-22.412    c0-9.579,7.794-17.373,17.373-17.373H246v39.784c-20.221,4.568-35.372,22.666-35.372,44.248C210.628,491.646,230.982,512,256,512    s45.372-20.354,45.372-45.372c0-21.582-15.151-39.68-35.372-44.248v-39.784h152.916c9.579,0,17.373,7.793,17.373,17.373v22.412    c-20.221,4.568-35.372,22.666-35.372,44.248c0,25.018,20.354,45.372,45.372,45.372s45.371-20.354,45.371-45.372    C491.661,445.047,476.51,426.949,456.289,422.381z M91.083,466.628c0,13.99-11.382,25.372-25.372,25.372    c-13.989,0-25.371-11.382-25.371-25.372s11.382-25.372,25.371-25.372C79.701,441.256,91.083,452.638,91.083,466.628z     M281.372,466.628C281.372,480.618,269.99,492,256,492s-25.372-11.382-25.372-25.372S242.01,441.256,256,441.256    S281.372,452.638,281.372,466.628z M446.289,492c-13.99,0-25.372-11.382-25.372-25.372s11.382-25.372,25.372-25.372    c13.989,0,25.371,11.382,25.371,25.372C471.661,480.618,460.279,492,446.289,492z"/>
	</g>
</g>
<g>
	<g>
		<path d="M256,0C169.474,0,99.078,70.395,99.078,156.922c0,49.278,22.839,93.315,58.48,122.105    c0.257,0.254,0.515,0.508,0.802,0.737c7.836,6.236,16.122,11.648,24.777,16.211c0.001-0.036,0.001-0.072,0.002-0.108    c21.786,11.471,46.577,17.977,72.861,17.977c32.349,0,62.442-9.842,87.446-26.685c0.014,0.016,0.029,0.032,0.044,0.048    c3.459-2.335,6.846-4.813,10.151-7.443c0.287-0.228,0.545-0.482,0.802-0.737c35.64-28.79,58.479-72.827,58.479-122.105    C412.922,70.395,342.528,0,256,0z M256,293.844c-29.847,0-57.49-9.607-80.012-25.881c10.471-33.66,43.123-57.482,80.012-57.482    s69.541,23.822,80.012,57.482C313.49,284.237,285.847,293.844,256,293.844z M219.612,156.922c0-18.505,15.055-33.56,33.56-33.56    c18.504,0,33.559,15.055,33.559,33.56c-0.001,18.504-15.055,33.559-33.559,33.559    C234.667,190.481,219.612,175.426,219.612,156.922z M352.281,254.177c-6.496-15.935-17.151-30.188-30.96-41.124    c-9.447-7.482-20.171-13.22-31.584-17.046c10.448-9.78,16.995-23.678,16.995-39.085c0-29.533-24.026-53.56-53.559-53.56    c-29.533,0-53.56,24.027-53.56,53.56c0,16.185,7.226,30.704,18.609,40.533c-9.902,3.772-19.219,9.007-27.541,15.598    c-13.809,10.936-24.465,25.189-30.96,41.124c-25.08-24.831-40.642-59.258-40.642-97.255C119.078,81.423,180.502,20,256,20    s136.922,61.423,136.922,136.922C392.922,194.919,377.359,229.346,352.281,254.177z"/>
	</g>
</g>
<g>
	<g>
		<circle cx="256" cy="328.57" r="10"/>
	</g>
</g>
<g>
</g>
<g>
</g>
<g>
</g>
<g>
</g>
<g>
</g>
<g>
</g>
<g>
</g>
<g>
</g>
<g>
</g>
<g>
</g>
<g>
</g>
<g>
</g>
<g>
</g>
<g>
</g>
<g>
</g>
</svg>
