<?xml version="1.0" encoding="iso-8859-1"?>
<!-- Generator: Adobe Illustrator 19.0.0, SVG Export Plug-In . SVG Version: 6.00 Build 0)  -->
<svg xmlns="http://www.w3.org/2000/svg" xmlns:xlink="http://www.w3.org/1999/xlink" version="1.1" id="Capa_1" x="0px" y="0px" viewBox="0 0 512 512" style="enable-background:new 0 0 512 512;" xml:space="preserve">
<g>
	<g>
		<path d="M481.413,375.346C501.451,337.835,512,296.814,512,256c0-40.814-10.549-81.835-30.587-119.347l6.112-6.112    c17.586-17.586,17.589-46.051,0-63.639l-42.426-42.427c-17.587-17.587-46.051-17.589-63.64,0l-6.113,6.113    C337.835,10.549,296.814,0,256,0c-40.814,0-81.836,10.549-119.347,30.587l-6.113-6.113c-17.587-17.587-46.051-17.589-63.64,0    L24.475,66.901c-17.587,17.587-17.589,46.051,0,63.64l6.113,6.113C10.549,174.165,0,215.186,0,256    c0,40.814,10.549,81.835,30.587,119.347l-6.113,6.113c-17.586,17.586-17.589,46.051,0,63.639L66.9,487.526    c17.587,17.587,46.051,17.589,63.64,0l6.113-6.113C174.164,501.451,215.186,512,256,512c40.814,0,81.836-10.549,119.347-30.587    l6.113,6.113c17.586,17.586,46.051,17.589,63.639,0l42.427-42.427c17.587-17.587,17.589-46.051,0-63.64L481.413,375.346z M482,256    c0,32.959-7.867,66.156-22.882,97.052l-14.019-14.019c-17.587-17.587-46.051-17.589-63.64,0l-10.607,10.607l-52.31-52.311    C326.406,285.47,331,271.264,331,256c0-15.264-4.594-29.47-12.458-41.33l52.31-52.311l10.607,10.607    c17.586,17.586,46.051,17.589,63.639,0l14.019-14.019C474.133,189.844,482,223.041,482,256z M360.247,88.115l28.08-28.08    c0.033-0.031,0.064-0.064,0.096-0.096l14.25-14.25c5.862-5.863,15.349-5.864,21.213-0.001l42.427,42.427    c5.862,5.862,5.863,15.349,0,21.213l-42.427,42.426c-5.862,5.862-15.349,5.863-21.213,0l-42.426-42.426    C354.385,103.465,354.384,93.978,360.247,88.115z M256,30c32.959,0,66.156,7.867,97.052,22.882l-14.019,14.019    c-17.587,17.587-17.589,46.051,0,63.64l10.606,10.606l-52.31,52.311C285.47,185.594,271.264,181,256,181    c-15.264,0-29.47,4.594-41.33,12.458l-52.31-52.31l10.607-10.607c17.586-17.586,17.589-46.051,0-63.639l-14.019-14.019    C189.843,37.867,223.041,30,256,30z M301,256c0,24.813-20.187,45-45,45s-45-20.187-45-45s20.187-45,45-45S301,231.187,301,256z     M45.687,88.114l42.426-42.427c5.85-5.849,15.365-5.848,21.214,0l42.426,42.427c5.862,5.862,5.863,15.349,0,21.213    c-5.17,5.17-37.274,37.274-42.426,42.426c-5.849,5.849-15.365,5.849-21.214,0l-42.426-42.426    C39.826,103.465,39.825,93.978,45.687,88.114z M30,256c0-32.959,7.867-66.156,22.882-97.052l14.019,14.019    c17.587,17.587,46.051,17.589,63.64,0l10.607-10.607l52.31,52.31C185.594,226.53,181,240.736,181,256    c0,15.264,4.594,29.47,12.458,41.33l-52.31,52.31l-10.607-10.607c-17.587-17.587-46.051-17.589-63.64,0l-14.019,14.019    C37.867,322.156,30,288.959,30,256z M151.754,423.886l-42.426,42.427c-5.849,5.848-15.366,5.848-21.214,0l-42.426-42.427    c-5.862-5.862-5.862-15.349,0-21.213l42.426-42.426c5.849-5.849,15.365-5.849,21.214,0l42.426,42.426    C157.616,408.536,157.617,418.023,151.754,423.886z M256,482c-32.959,0-66.157-7.867-97.052-22.882l14.019-14.019    c17.587-17.587,17.589-46.051,0-63.64l-10.607-10.607l52.31-52.31C226.53,326.406,240.736,331,256,331    c15.264,0,29.47-4.594,41.329-12.458l52.31,52.311l-10.606,10.606c-17.586,17.586-17.589,46.051,0,63.639l14.019,14.019    C322.156,474.133,288.959,482,256,482z M466.313,423.885l-42.427,42.427c-5.862,5.862-15.349,5.863-21.213,0l-42.426-42.427    c-5.862-5.862-5.863-15.349,0-21.213l42.426-42.426c5.863-5.862,15.35-5.863,21.213,0l42.427,42.426    C472.174,408.535,472.176,418.022,466.313,423.885z"/>
	</g>
</g>
<g>
</g>
<g>
</g>
<g>
</g>
<g>
</g>
<g>
</g>
<g>
</g>
<g>
</g>
<g>
</g>
<g>
</g>
<g>
</g>
<g>
</g>
<g>
</g>
<g>
</g>
<g>
</g>
<g>
</g>
</svg>
