<?xml version="1.0" encoding="iso-8859-1"?>
<!-- Generator: Adobe Illustrator 19.0.0, SVG Export Plug-In . SVG Version: 6.00 Build 0)  -->
<svg xmlns="http://www.w3.org/2000/svg" xmlns:xlink="http://www.w3.org/1999/xlink" version="1.1" id="Layer_1" x="0px" y="0px" viewBox="0 0 512 512" style="enable-background:new 0 0 512 512;" xml:space="preserve">
<g>
	<g>
		<path d="M510.179,124.797c-1.872-2.663-4.924-4.247-8.179-4.247H336.669c-3.996,0-7.608,2.379-9.187,6.051l-35.279,82.06h-72.408    l-35.279-82.06c-1.578-3.672-5.19-6.051-9.187-6.051H10c-3.255,0-6.307,1.584-8.179,4.247c-1.873,2.662-2.333,6.069-1.232,9.133    l30.718,85.538v276.089c0,5.522,4.478,10,10,10h257.482h171.569c5.522,0,10-4.478,10-10V220.401l31.053-86.471    C512.512,130.867,512.052,127.459,510.179,124.797z M24.217,140.55h144.528l29.282,68.11H48.675L24.217,140.55z M460.359,485.557    L460.359,485.557h-151.57V314.039c0-5.522-4.478-10-10-10c-5.522,0-10,4.478-10,10v171.518H51.307V228.661h409.052V485.557z     M463.325,208.661H313.973l29.282-68.11h144.528L463.325,208.661z"/>
	</g>
</g>
<g>
	<g>
		<path d="M256.946,6.444c-5.522,0-10,4.478-10,10v50.1c0,5.523,4.478,10,10,10c5.522,0,10-4.478,10-10v-50.1    C266.946,10.922,262.468,6.444,256.946,6.444z"/>
	</g>
</g>
<g>
	<g>
		<path d="M345.705,44.963c-3.906-3.904-10.236-3.904-14.143,0l-35.426,35.426c-3.905,3.905-3.905,10.237,0,14.143    c1.954,1.953,4.512,2.929,7.072,2.929s5.118-0.977,7.071-2.929l35.426-35.426C349.61,55.201,349.61,48.869,345.705,44.963z"/>
	</g>
</g>
<g>
	<g>
		<path d="M215.863,80.39l-35.426-35.426c-3.906-3.904-10.236-3.904-14.143,0c-3.905,3.905-3.905,10.237,0,14.143l35.427,35.426    c1.953,1.952,4.512,2.929,7.071,2.929s5.118-0.977,7.071-2.929C219.768,90.628,219.768,84.296,215.863,80.39z"/>
	</g>
</g>
<g>
	<g>
		<circle cx="298.79" cy="266.641" r="10"/>
	</g>
</g>
<g>
</g>
<g>
</g>
<g>
</g>
<g>
</g>
<g>
</g>
<g>
</g>
<g>
</g>
<g>
</g>
<g>
</g>
<g>
</g>
<g>
</g>
<g>
</g>
<g>
</g>
<g>
</g>
<g>
</g>
</svg>
