<?xml version="1.0" encoding="iso-8859-1"?>
<!-- Generator: Adobe Illustrator 19.0.0, SVG Export Plug-In . SVG Version: 6.00 Build 0)  -->
<svg xmlns="http://www.w3.org/2000/svg" xmlns:xlink="http://www.w3.org/1999/xlink" version="1.1" id="Capa_1" x="0px" y="0px" viewBox="0 0 512 512" style="enable-background:new 0 0 512 512;" xml:space="preserve">
<g>
	<g>
		<path d="M256,332c-8.271,0-15-6.729-15-15c0-6.042,3.595-11.468,9.16-13.825c6.714-2.844,14.755-0.417,22.058,6.659    c5.95,5.764,15.447,5.614,21.21-0.336c5.765-5.95,5.614-15.446-0.335-21.211c-6.772-6.561-14.3-11.198-22.093-13.815V257    c0-8.284-6.716-15-15-15s-15,6.716-15,15v17.571c-18.334,6.522-30,23.612-30,42.429c0,24.813,20.187,45,45,45    c8.271,0,15,6.729,15,15c0,6.286-3.965,11.953-9.866,14.103c-7.706,2.805-16.674-1-24.606-10.445    c-5.328-6.344-14.791-7.167-21.133-1.839c-6.344,5.328-7.167,14.79-1.839,21.133c8.109,9.654,17.548,16.275,27.445,19.608V437    c0,8.284,6.716,15,15,15s15-6.716,15-15v-17.572c0.134-0.047,0.268-0.088,0.401-0.137C289.105,412.843,301,395.847,301,377    C301,352.188,280.813,332,256,332z"/>
	</g>
</g>
<g>
	<g>
		<path d="M361,219.814V51.214l19.394,19.393c5.857,5.858,15.355,5.858,21.213,0c5.858-5.858,5.858-15.355,0-21.213l-45-45    c-5.857-5.858-15.355-5.858-21.213,0l-45,45c-5.858,5.858-5.858,15.355,0,21.213c5.857,5.858,15.355,5.858,21.213,0L331,51.214    v148.839C308.486,188.514,282.989,182,256,182s-52.486,6.514-75,18.052v-73.839l19.394,19.393c5.857,5.858,15.355,5.858,21.213,0    c5.858-5.858,5.858-15.355,0-21.213l-45-45c-5.857-5.858-15.355-5.858-21.213,0l-45,45c-5.858,5.858-5.858,15.355,0,21.213    c5.857,5.858,15.355,5.858,21.213,0L151,126.214v93.601C114.376,250.103,91,295.872,91,347c0,90.981,74.019,165,165,165    s165-74.019,165-165C421,295.872,397.624,250.103,361,219.814z M256,482c-74.439,0-135-60.561-135-135s60.561-135,135-135    s135,60.561,135,135S330.439,482,256,482z"/>
	</g>
</g>
<g>
</g>
<g>
</g>
<g>
</g>
<g>
</g>
<g>
</g>
<g>
</g>
<g>
</g>
<g>
</g>
<g>
</g>
<g>
</g>
<g>
</g>
<g>
</g>
<g>
</g>
<g>
</g>
<g>
</g>
</svg>
