<?xml version="1.0" encoding="iso-8859-1"?>
<!-- Generator: Adobe Illustrator 19.0.0, SVG Export Plug-In . SVG Version: 6.00 Build 0)  -->
<svg xmlns="http://www.w3.org/2000/svg" xmlns:xlink="http://www.w3.org/1999/xlink" version="1.1" id="Capa_1" x="0px" y="0px" viewBox="0 0 512 512" style="enable-background:new 0 0 512 512;" xml:space="preserve">
<g>
	<g>
		<path d="M105.537,362.057c-24.799,0-44.974,20.175-44.974,44.974c0,24.799,20.175,44.974,44.974,44.974    s44.974-20.175,44.974-44.974C150.511,382.233,130.336,362.057,105.537,362.057z M105.537,422.023    c-8.266,0-14.991-6.725-14.991-14.991c0-8.266,6.725-14.991,14.991-14.991s14.991,6.725,14.991,14.991    C120.528,415.297,113.803,422.023,105.537,422.023z"/>
	</g>
</g>
<g>
	<g>
		<path d="M438.695,374.951c-17.535-17.535-46.067-17.536-63.603,0c-17.535,17.535-17.535,46.067,0,63.602    c17.534,17.535,46.067,17.536,63.603,0C456.23,421.018,456.23,392.486,438.695,374.951z M417.493,417.352    c-5.839,5.839-15.364,5.838-21.202,0c-5.844-5.845-5.844-15.356,0.001-21.201c5.839-5.839,15.363-5.839,21.201,0    C423.339,401.997,423.339,411.508,417.493,417.352z"/>
	</g>
</g>
<g>
	<g>
		<path d="M388.497,303.431l-46.028-46.989l48.265-47.814c33.223,5.224,66.449-5.587,90.362-29.499    c31.399-31.398,39.64-79.401,20.509-119.449c-4.458-9.332-16.823-11.443-24.128-4.139l-44.41,44.412    c-10.607-2.223-18.98-10.596-21.203-21.202l44.411-44.41c7.312-7.311,5.185-19.674-4.139-24.128    C412.09-8.915,364.089-0.673,332.69,30.724c-25.024,25.023-35.586,60.704-28.616,94.954l-47.699,47.249l-48.904-44.969    c7.905-34.998-2.484-71.518-28.199-97.235c-40.915-40.915-107.491-40.915-148.406,0c-40.915,40.915-40.915,107.491,0,148.407    c24.312,24.314,59.317,35.194,93.176,29.013c9.026,8.24,27.847,25.642,49.454,46.878l-49.232,48.768    c-13.775-2.517-27.773-2.24-41.73,0.836c-40.593,8.945-72.812,42.27-80.171,82.922c-13.088,72.299,49.107,136.732,123.755,122.455    c42.229-8.076,76.377-43.499,83.043-86.142c1.85-11.837,1.758-23.604-0.267-35.092l49.382-48.92    c20.046,20.558,36.927,39.214,45.346,48.233c-6.033,33.607,4.719,68.524,29.068,92.873c40.915,40.914,107.49,40.916,148.406,0    c40.915-40.916,40.915-107.491,0-148.407C456.814,308.266,422.025,297.506,388.497,303.431z M138.36,180.654    c-3.768-3.372-8.981-4.617-13.866-3.313c-25.81,6.892-53.563-0.545-72.427-19.409C22.841,128.704,22.841,81.15,52.066,51.925    c29.225-29.226,76.778-29.225,106.005,0c20.006,20.006,27.026,49.175,18.319,76.124c-1.573,4.869-0.555,10.204,2.702,14.151    c2.095,2.539-1.327-0.825,55.958,51.851l-40.25,39.87C164.009,203.647,138.641,180.904,138.36,180.654z M182.093,373.117    c-0.069,0.066-0.138,0.134-0.206,0.202l-0.24,0.24c-4.591,4.591-5.583,11.422-2.97,16.98c2.093,9.314,2.383,18.952,0.861,28.692    c-4.747,30.364-29.029,55.582-59.052,61.323c-52.889,10.116-98.18-34.851-88.619-87.666c5.15-28.453,28.639-52.707,57.12-58.983    c11.863-2.615,24.017-2.477,36.097,0.782c5.156,1.389,10.661-0.066,14.454-3.824l191.685-189.876    c3.924-3.887,5.393-9.615,3.824-14.91c-7.799-26.315-0.579-54.728,18.845-74.152c16.956-16.955,40.68-24.459,63.611-21.21    l-31.811,31.811c-2.811,2.811-4.391,6.624-4.391,10.601c0,31.648,25.747,57.394,57.395,57.394c3.977,0,7.789-1.579,10.601-4.391    l31.81-31.811c3.248,22.929-4.257,46.658-21.211,63.612c-18.589,18.588-44.967,26.019-70.565,19.878    c-5.046-1.21-10.363,0.276-14.051,3.929C375.279,181.738,185.935,369.309,182.093,373.117z M459.896,459.755    c-29.226,29.226-76.778,29.226-106.005,0c-18.864-18.864-26.302-46.617-19.409-72.427c1.38-5.169-0.099-10.682-3.881-14.466    c-0.078-0.078-36.708-39.428-51.025-54.113l41.593-41.204l51.723,52.802c3.783,3.862,9.353,5.389,14.577,3.994    c25.809-6.893,53.562,0.545,72.427,19.409C489.121,382.976,489.121,430.53,459.896,459.755z"/>
	</g>
</g>
<g>
	<g>
		<path d="M136.87,73.125c-17.536-17.535-46.067-17.535-63.603,0c-17.535,17.536-17.535,46.068,0,63.603    c17.535,17.535,46.067,17.536,63.603,0C154.405,119.193,154.405,90.661,136.87,73.125z M115.668,115.527    c-5.846,5.845-15.356,5.845-21.202,0c-5.844-5.845-5.844-15.356,0.001-21.201c5.847-5.845,15.357-5.846,21.201,0    C121.514,100.172,121.514,109.683,115.668,115.527z"/>
	</g>
</g>
<g>
</g>
<g>
</g>
<g>
</g>
<g>
</g>
<g>
</g>
<g>
</g>
<g>
</g>
<g>
</g>
<g>
</g>
<g>
</g>
<g>
</g>
<g>
</g>
<g>
</g>
<g>
</g>
<g>
</g>
</svg>
