<?xml version="1.0" encoding="iso-8859-1"?>
<!-- Generator: Adobe Illustrator 19.0.0, SVG Export Plug-In . SVG Version: 6.00 Build 0)  -->
<svg xmlns="http://www.w3.org/2000/svg" xmlns:xlink="http://www.w3.org/1999/xlink" version="1.1" id="Capa_1" x="0px" y="0px" viewBox="0 0 512 512" style="enable-background:new 0 0 512 512;" xml:space="preserve">
<g>
	<g>
		<path d="M465.516,252.243C475.72,241.482,482,226.965,482,211c0-33.084-26.916-60-60-60s-60,26.916-60,60    c0,15.905,6.232,30.374,16.369,41.122c-7.375,4.03-14.249,9.091-20.412,15.142c-2.081,2.043-4.042,4.17-5.896,6.365    c-9.629-21.745-26.428-39.63-47.385-50.641C320.77,209.222,331,188.789,331,166c0-41.355-33.645-75-75-75    c-41.355,0-75,33.645-75,75c0,22.789,10.23,43.222,26.323,56.988c-20.957,11.012-37.756,28.897-47.385,50.642    c-1.854-2.196-3.816-4.323-5.896-6.366c-6.163-6.051-13.036-11.112-20.411-15.142C143.768,241.374,150,226.905,150,211    c0-33.084-26.916-60-60-60s-60,26.916-60,60c0,15.965,6.28,30.482,16.484,41.243C18.79,267.606,0,297.148,0,331v75    c0,8.284,6.716,15,15,15c5.697,0,472.275,0,482,0c8.284,0,15-6.716,15-15v-75C512,297.148,493.21,267.606,465.516,252.243z     M90,181c16.542,0,30,13.458,30,30s-13.458,30-30,30s-30-13.458-30-30S73.458,181,90,181z M151,391H30v-60    c0-33.084,26.916-60,60-60c33.636,0,61,26.916,61,60V391z M256,121c24.813,0,45,20.187,45,45s-20.187,45-45,45s-45-20.187-45-45    S231.187,121,256,121z M331,391H181c0-7.836,0-67.566,0-75c0-41.355,33.645-75,75-75s75,33.645,75,75    C331,323.43,331,383.164,331,391z M422,181c16.542,0,30,13.458,30,30s-13.458,30-30,30s-30-13.458-30-30S405.458,181,422,181z     M482,391H361v-60c0-33.084,27.364-60,61-60c33.084,0,60,26.916,60,60V391z"/>
	</g>
</g>
<g>
</g>
<g>
</g>
<g>
</g>
<g>
</g>
<g>
</g>
<g>
</g>
<g>
</g>
<g>
</g>
<g>
</g>
<g>
</g>
<g>
</g>
<g>
</g>
<g>
</g>
<g>
</g>
<g>
</g>
</svg>
