<?xml version="1.0" encoding="iso-8859-1"?>
<!-- Generator: Adobe Illustrator 19.0.0, SVG Export Plug-In . SVG Version: 6.00 Build 0)  -->
<svg xmlns="http://www.w3.org/2000/svg" xmlns:xlink="http://www.w3.org/1999/xlink" version="1.1" id="Capa_1" x="0px" y="0px" viewBox="0 0 512 512" style="enable-background:new 0 0 512 512;" xml:space="preserve">
<g>
	<g>
		<path d="M455.677,373.988C471.77,360.222,482,339.789,482,317c0-24.484-11.796-46.262-30-59.959c0-0.013,0-0.027,0-0.041    c0-107.808-88.214-196-196-196c-26.897,0-52.662,4.87-76.006,14.248c0-0.083,0.006-0.165,0.006-0.248c0-41.355-33.645-75-75-75    S30,33.645,30,75c0,22.789,10.23,43.222,26.323,56.988C22.871,149.566,0,184.66,0,225v30c0,8.284,6.716,15,15,15h45.574    C68.229,370.513,152.94,451,256,451c16.774,0,33.014-1.789,48.158-5.232C302.744,452.627,302,459.728,302,467v30    c0,8.284,6.716,15,15,15h180c8.284,0,15-6.716,15-15v-30C512,426.66,489.129,391.566,455.677,373.988z M452,317    c0,24.813-20.187,45-45,45s-45-20.187-45-45s20.187-45,45-45S452,292.187,452,317z M105,30c24.813,0,45,20.187,45,45    s-20.187,45-45,45S60,99.813,60,75S80.187,30,105,30z M30,240v-15c0-41.355,33.645-75,75-75s75,33.645,75,75v15H30z M256,421    c-86.477,0-157.707-66.471-165.315-151H195c8.284,0,15-6.716,15-15v-30c0-40.34-22.871-75.434-56.323-93.012    c5.929-5.072,11.066-11.042,15.183-17.711C193.832,99.052,223.869,91,256,91c86.956,0,158.503,67.21,165.44,152.409    c-4.675-0.916-9.5-1.409-14.44-1.409c-41.355,0-75,33.645-75,75c0,22.789,10.23,43.222,26.323,56.988    c-16.034,8.425-29.636,20.873-39.454,35.996C300.638,417.197,279.017,421,256,421z M482,482H332v-15c0-41.355,33.645-75,75-75    c41.355,0,75,33.645,75,75V482z"/>
	</g>
</g>
<g>
</g>
<g>
</g>
<g>
</g>
<g>
</g>
<g>
</g>
<g>
</g>
<g>
</g>
<g>
</g>
<g>
</g>
<g>
</g>
<g>
</g>
<g>
</g>
<g>
</g>
<g>
</g>
<g>
</g>
</svg>
