<?xml version="1.0" encoding="iso-8859-1"?>
<!-- Generator: Adobe Illustrator 19.0.0, SVG Export Plug-In . SVG Version: 6.00 Build 0)  -->
<svg xmlns="http://www.w3.org/2000/svg" xmlns:xlink="http://www.w3.org/1999/xlink" version="1.1" id="Capa_1" x="0px" y="0px" viewBox="0 0 512 512" style="enable-background:new 0 0 512 512;" xml:space="preserve">
<g>
	<g>
		<path d="M256,121c-91.087,0-165,74.82-165,166c0,90.982,74.056,165,165,165c90.982,0,165-74.057,165-165    C421,196.406,347.568,121,256,121z M256,272c8.271,0,15,6.729,15,15s-6.729,15-15,15c-8.271,0-15-6.729-15-15S247.729,272,256,272    z M361.429,371.216l-10.01-10.01c-5.857-5.858-15.355-5.858-21.213,0c-5.858,5.858-5.858,15.355,0,21.213l10.01,10.01    C320.792,407.976,297,418.275,271,421.162V407c0-8.284-6.716-15-15-15c-8.284,0-15,6.716-15,15v14.162    c-26-2.887-49.792-13.186-69.216-28.733l10.01-10.01c5.858-5.858,5.858-15.355,0-21.213c-5.857-5.857-15.355-5.857-21.213,0    l-10.01,10.01C135.024,351.792,124.725,328,121.838,302H136c8.284,0,15-6.716,15-15s-6.716-15-15-15h-14.175    c2.881-26.329,13.251-50.415,28.913-70.049l9.843,9.843c5.857,5.857,15.354,5.858,21.213,0c5.857-5.858,5.857-15.355,0-21.213    l-9.889-9.889c19.401-15.608,43.15-25.945,69.095-28.848v92.736c-17.459,6.192-30,22.865-30,42.42    c0,6.939,1.581,13.514,4.398,19.389l-13.129,13.129c-5.858,5.858-5.858,15.355,0,21.213c2.929,2.929,6.768,4.393,10.606,4.393    s7.678-1.465,10.606-4.394l13.129-13.129C242.486,330.419,249.061,332,256,332c24.813,0,45-20.187,45-45    c0-19.555-12.541-36.228-30-42.42v-92.736c25.945,2.903,49.694,13.24,69.095,28.848l-9.889,9.889    c-5.858,5.858-5.858,15.355,0,21.213c5.857,5.858,15.355,5.858,21.213,0l9.843-9.843c15.662,19.633,26.032,43.72,28.913,70.049    H376c-8.284,0-15,6.716-15,15s6.716,14.9,15,14.9h14.162C387.274,327.9,376.976,351.792,361.429,371.216z"/>
	</g>
</g>
<g>
	<g>
		<path d="M446.919,116.294l10.606,10.607c5.859,5.859,15.357,5.856,21.213,0c5.858-5.858,5.858-15.355,0-21.213    c-5.037-5.037-37.262-37.262-42.426-42.427c-5.857-5.858-15.355-5.858-21.213,0c-5.858,5.858-5.858,15.355,0,21.213l10.607,10.607    l-21.867,21.867C366.537,84.083,320.272,64.775,271,61.51V30h45c8.284,0,15-6.716,15-15s-6.716-15-15-15H196    c-8.284,0-15,6.716-15,15s6.716,15,15,15h45v31.51c-49.272,3.264-95.537,22.573-132.839,55.438L86.294,95.081l10.607-10.607    c5.858-5.858,5.858-15.355,0-21.213c-5.857-5.858-15.355-5.857-21.213,0c-5.037,5.037-37.262,37.262-42.426,42.427    c-5.858,5.858-5.858,15.355,0,21.213c5.857,5.858,15.355,5.858,21.213,0l10.607-10.607l21.901,21.901    C50.786,179.523,31,231.817,31,287c0,124.065,100.935,225,225,225s225-100.935,225-225c0-55.183-19.786-107.477-55.982-148.805    L446.919,116.294z M451,287c0,107.523-87.477,195-195,195S61,394.523,61,287c0-108.075,87.477-196,195-196S451,178.925,451,287z"/>
	</g>
</g>
<g>
</g>
<g>
</g>
<g>
</g>
<g>
</g>
<g>
</g>
<g>
</g>
<g>
</g>
<g>
</g>
<g>
</g>
<g>
</g>
<g>
</g>
<g>
</g>
<g>
</g>
<g>
</g>
<g>
</g>
</svg>
